@startuml
!theme mars
left to right direction

state "Press key" as pk
state "Update position" as up
state c <<choice>>
state c2 <<choice>>
state "Redraw screen" as rd
state "Move to a new position" as mtp

[*] --> pk
pk --> c2
c2 --> up: "Key is an arrow key"
c2 --> [*]: "Key is not an arrow key"
up --> c
c --> mtp: "Wall on tile"
c --> [*]: "No wall on tile"
mtp->rd
rd->[*]
@enduml
